<svg id="visual" viewBox="0 0 900 600" width="900" height="600" xmlns="http://www.w3.org/2000/svg" xmlns:xlink="http://www.w3.org/1999/xlink" version="1.1"><rect x="0" y="0" width="900" height="600" fill="#fff"></rect><defs><linearGradient id="grad1_0" x1="33.3%" y1="100%" x2="100%" y2="0%"><stop offset="20%" stop-color="#ffffff" stop-opacity="1"></stop><stop offset="80%" stop-color="#ffffff" stop-opacity="1"></stop></linearGradient></defs><defs><linearGradient id="grad2_0" x1="0%" y1="100%" x2="66.7%" y2="0%"><stop offset="20%" stop-color="#ffffff" stop-opacity="1"></stop><stop offset="80%" stop-color="#ffffff" stop-opacity="1"></stop></linearGradient></defs><g transform="translate(900, 600)"><path d="M-378.6 0C-379.7 -85.2 -380.7 -170.5 -327.9 -189.3C-275 -208.1 -168.1 -160.5 -104.5 -181C-40.9 -201.5 -20.4 -290 0 -378.6L0 0Z" fill="#FBAE3C"></path></g><g transform="translate(0, 0)"><path d="M378.6 0C314.5 34.6 250.4 69.1 226.9 131C203.4 192.9 220.4 282 189.3 327.9C158.2 373.7 79.1 376.1 0 378.6L0 0Z" fill="#FBAE3C"></path></g></svg>